<svg width="1282" height="275" viewBox="0 0 1282 275" fill="none" xmlns="http://www.w3.org/2000/svg">
<path d="M347.005 208C339.205 208 332.638 207.133 327.305 205.4C321.971 203.667 317.338 201.167 313.405 197.9C309.538 194.633 306.438 191.033 304.105 187.1C301.771 183.167 300.605 181.2 300.605 181.2L319.005 171.5C319.005 171.5 319.905 172.9 321.705 175.7C323.505 178.5 325.471 180.867 327.605 182.8C329.805 184.733 332.405 186.267 335.405 187.4C338.405 188.533 342.071 189.1 346.405 189.1C351.471 189.1 355.638 188.067 358.905 186C362.238 183.867 363.905 181 363.905 177.4C363.905 173.4 362.405 170.467 359.405 168.6C356.471 166.667 350.771 164.667 342.305 162.6C328.571 159.2 318.938 154.9 313.405 149.7C307.938 144.5 305.205 137.833 305.205 129.7C305.205 119.967 309.071 112.367 316.805 106.9C324.605 101.433 334.571 98.7 346.705 98.7C352.771 98.7 357.938 99.3333 362.205 100.6C366.538 101.867 370.371 103.767 373.705 106.3C377.105 108.833 380.038 111.833 382.505 115.3C385.038 118.7 386.305 120.4 386.305 120.4L369.205 131.6C369.205 131.6 368.405 130.533 366.805 128.4C365.271 126.267 363.438 124.367 361.305 122.7C359.238 120.967 357.005 119.7 354.605 118.9C352.205 118.1 349.438 117.7 346.305 117.7C341.171 117.7 337.171 118.733 334.305 120.8C331.438 122.8 330.005 125.3 330.005 128.3C330.005 132.1 331.671 134.9 335.005 136.7C338.405 138.5 344.338 140.4 352.805 142.4C366.005 145.467 375.305 149.467 380.705 154.4C386.171 159.267 388.905 166.433 388.905 175.9C388.905 186.167 385.005 194.1 377.205 199.7C369.471 205.233 359.405 208 347.005 208ZM437.859 208C426.526 208 417.593 204.6 411.059 197.8C404.593 190.933 401.359 181.667 401.359 170V100.7H427.659V162.5C427.659 169.633 429.259 175.133 432.459 179C435.726 182.867 440.626 184.8 447.159 184.8C454.226 184.8 459.859 182.367 464.059 177.5C468.259 172.633 470.359 166.533 470.359 159.2V100.7H496.759V206H471.159V177.2L484.359 190.5H471.159C467.759 196.1 463.259 200.433 457.659 203.5C452.126 206.5 445.526 208 437.859 208ZM518.098 244V100.7H542.898V119.7L538.198 115.5H542.898C546.298 110.567 551.265 106.533 557.798 103.4C564.332 100.267 571.865 98.7 580.398 98.7C594.465 98.7 606.298 103.8 615.898 114C625.565 124.2 630.398 137.133 630.398 152.8C630.398 168.8 625.498 182 615.698 192.4C605.898 202.8 593.765 208 579.298 208C571.898 208 564.932 206.533 558.398 203.6C551.865 200.6 546.832 196.4 543.298 191L544.498 191.9V244H518.098ZM573.998 184.5C582.998 184.5 590.398 181.633 596.198 175.9C602.065 170.167 604.998 162.533 604.998 153C604.998 143.4 602.065 135.767 596.198 130.1C590.332 124.367 582.932 121.5 573.998 121.5C564.998 121.5 557.665 124.533 551.998 130.6C546.332 136.6 543.498 144.067 543.498 153C543.498 162.267 546.398 169.833 552.198 175.7C557.998 181.567 565.265 184.5 573.998 184.5ZM677.952 208C666.552 208 657.085 204.967 649.552 198.9C642.085 192.833 638.352 184.867 638.352 175C638.352 164.4 642.452 155.967 650.652 149.7C658.918 143.433 669.752 140.3 683.152 140.3C688.152 140.3 693.085 140.8 697.952 141.8C702.885 142.8 707.352 144.2 711.352 146V140.3C711.352 133.7 709.052 128.633 704.452 125.1C699.852 121.5 694.418 119.7 688.152 119.7C684.752 119.7 681.585 120.167 678.652 121.1C675.785 121.967 673.118 123.233 670.652 124.9C668.252 126.5 665.785 128.467 663.252 130.8C660.718 133.133 659.452 134.3 659.452 134.3L641.852 120.2C641.852 120.2 643.585 118.567 647.052 115.3C650.518 111.967 654.385 109.033 658.652 106.5C662.985 103.9 667.785 101.967 673.052 100.7C678.318 99.3667 684.452 98.7 691.452 98.7C705.252 98.7 716.418 102.267 724.952 109.4C733.485 116.467 737.752 126.367 737.752 139.1V206H712.552V185.1L717.452 190.1H712.552C708.685 196.033 703.852 200.5 698.052 203.5C692.252 206.5 685.552 208 677.952 208ZM684.852 188.4C693.118 188.4 699.585 185.633 704.252 180.1C708.985 174.5 711.352 168.967 711.352 163.5V162.3C708.752 160.567 705.318 159.167 701.052 158.1C696.785 157.033 692.185 156.5 687.252 156.5C680.252 156.5 674.652 157.933 670.452 160.8C666.318 163.6 664.252 167.633 664.252 172.9C664.252 177.833 666.152 181.667 669.952 184.4C673.752 187.067 678.718 188.4 684.852 188.4ZM757.356 206V100.7H783.056V119.5L780.356 116.1H783.056C786.256 110.833 790.656 106.633 796.256 103.5C801.856 100.3 808.456 98.7 816.056 98.7C823.523 98.7 830.223 100.667 836.156 104.6C842.09 108.467 845.99 113.367 847.856 119.3C852.056 112.433 857.156 107.3 863.156 103.9C869.156 100.433 875.856 98.7 883.256 98.7C894.256 98.7 902.99 102.167 909.456 109.1C915.99 115.967 919.256 124.967 919.256 136.1V206H892.956V144.3C892.956 137.3 891.323 131.833 888.056 127.9C884.856 123.967 880.356 122 874.556 122C868.49 122 863.123 124.3 858.456 128.9C853.79 133.433 851.456 139.5 851.456 147.1V206H825.156V144.4C825.156 137.6 823.556 132.167 820.356 128.1C817.156 124.033 812.59 122 806.656 122C800.523 122 795.156 124.3 790.556 128.9C786.023 133.5 783.756 139.533 783.756 147V206H757.356ZM971.897 208C960.497 208 951.03 204.967 943.497 198.9C936.03 192.833 932.297 184.867 932.297 175C932.297 164.4 936.397 155.967 944.597 149.7C952.864 143.433 963.697 140.3 977.097 140.3C982.097 140.3 987.03 140.8 991.897 141.8C996.83 142.8 1001.3 144.2 1005.3 146V140.3C1005.3 133.7 1003 128.633 998.397 125.1C993.797 121.5 988.364 119.7 982.097 119.7C978.697 119.7 975.53 120.167 972.597 121.1C969.73 121.967 967.064 123.233 964.597 124.9C962.197 126.5 959.73 128.467 957.197 130.8C954.664 133.133 953.397 134.3 953.397 134.3L935.797 120.2C935.797 120.2 937.53 118.567 940.997 115.3C944.464 111.967 948.33 109.033 952.597 106.5C956.93 103.9 961.73 101.967 966.997 100.7C972.264 99.3667 978.397 98.7 985.397 98.7C999.197 98.7 1010.36 102.267 1018.9 109.4C1027.43 116.467 1031.7 126.367 1031.7 139.1V206H1006.5V185.1L1011.4 190.1H1006.5C1002.63 196.033 997.797 200.5 991.997 203.5C986.197 206.5 979.497 208 971.897 208ZM978.797 188.4C987.064 188.4 993.53 185.633 998.197 180.1C1002.93 174.5 1005.3 168.967 1005.3 163.5V162.3C1002.7 160.567 999.264 159.167 994.997 158.1C990.73 157.033 986.13 156.5 981.197 156.5C974.197 156.5 968.597 157.933 964.397 160.8C960.264 163.6 958.197 167.633 958.197 172.9C958.197 177.833 960.097 181.667 963.897 184.4C967.697 187.067 972.664 188.4 978.797 188.4ZM1086.1 208C1074.77 208 1065.83 204.6 1059.3 197.8C1052.83 190.933 1049.6 181.667 1049.6 170V100.7H1075.9V162.5C1075.9 169.633 1077.5 175.133 1080.7 179C1083.97 182.867 1088.87 184.8 1095.4 184.8C1102.47 184.8 1108.1 182.367 1112.3 177.5C1116.5 172.633 1118.6 166.533 1118.6 159.2V100.7H1145V206H1119.4V177.2L1132.6 190.5H1119.4C1116 196.1 1111.5 200.433 1105.9 203.5C1100.37 206.5 1093.77 208 1086.1 208ZM1203.84 208C1196.04 208 1189.47 207.133 1184.14 205.4C1178.81 203.667 1174.17 201.167 1170.24 197.9C1166.37 194.633 1163.27 191.033 1160.94 187.1C1158.61 183.167 1157.44 181.2 1157.44 181.2L1175.84 171.5C1175.84 171.5 1176.74 172.9 1178.54 175.7C1180.34 178.5 1182.31 180.867 1184.44 182.8C1186.64 184.733 1189.24 186.267 1192.24 187.4C1195.24 188.533 1198.91 189.1 1203.24 189.1C1208.31 189.1 1212.47 188.067 1215.74 186C1219.07 183.867 1220.74 181 1220.74 177.4C1220.74 173.4 1219.24 170.467 1216.24 168.6C1213.31 166.667 1207.61 164.667 1199.14 162.6C1185.41 159.2 1175.77 154.9 1170.24 149.7C1164.77 144.5 1162.04 137.833 1162.04 129.7C1162.04 119.967 1165.91 112.367 1173.64 106.9C1181.44 101.433 1191.41 98.7 1203.54 98.7C1209.61 98.7 1214.77 99.3333 1219.04 100.6C1223.37 101.867 1227.21 103.767 1230.54 106.3C1233.94 108.833 1236.87 111.833 1239.34 115.3C1241.87 118.7 1243.14 120.4 1243.14 120.4L1226.04 131.6C1226.04 131.6 1225.24 130.533 1223.64 128.4C1222.11 126.267 1220.27 124.367 1218.14 122.7C1216.07 120.967 1213.84 119.7 1211.44 118.9C1209.04 118.1 1206.27 117.7 1203.14 117.7C1198.01 117.7 1194.01 118.733 1191.14 120.8C1188.27 122.8 1186.84 125.3 1186.84 128.3C1186.84 132.1 1188.51 134.9 1191.84 136.7C1195.24 138.5 1201.17 140.4 1209.64 142.4C1222.84 145.467 1232.14 149.467 1237.54 154.4C1243.01 159.267 1245.74 166.433 1245.74 175.9C1245.74 186.167 1241.84 194.1 1234.04 199.7C1226.31 205.233 1216.24 208 1203.84 208Z" fill="white"/>
<path d="M67.9204 67.7739L151.493 151.346" stroke="white" stroke-width="12.5" stroke-linecap="round"/>
<path d="M104.338 184.426L136.007 216.095" stroke="white" stroke-width="12.5" stroke-linecap="round"/>
<path d="M117.926 223.621L128.482 234.177" stroke="white" stroke-width="12.5" stroke-linecap="round"/>
<path d="M67.4331 92.8936L145.727 171.188" stroke="white" stroke-width="12.5" stroke-linecap="round"/>
<path d="M85.4458 138.22L141.747 194.521" stroke="white" stroke-width="12.5" stroke-linecap="round"/>
<path d="M185.426 103.338L217.095 135.008" stroke="white" stroke-width="12.5" stroke-linecap="round"/>
<path d="M224.62 116.926L235.177 127.483" stroke="white" stroke-width="12.5" stroke-linecap="round"/>
<path d="M93.0396 67.2866L171.334 145.581" stroke="white" stroke-width="12.5" stroke-linecap="round"/>
<path d="M138.366 85.2993L194.667 141.601" stroke="white" stroke-width="12.5" stroke-linecap="round"/>
<circle cx="137.5" cy="137.5" r="131.25" stroke="white" stroke-width="12.5"/>
</svg>
